# AST/ASF file generated using VICON BodyLanguage
# -----------------------------------------------
:version 1.10
:name VICON
:units
  mass 1.0
  length 0.45
  angle deg
:documentation
   .ast/.asf automatically generated from VICON data using
   VICON BodyBuilder and BodyLanguage model FoxedUp or BRILLIANT.MOD
:root
   order TX TY TZ RX RY RZ
   axis XYZ
   position 0 0 0  
   orientation 0 0 0 
:bonedata
  begin
     id 1 
     name lhipjoint
     direction 0.653368 -0.678499 0.335782 
     length 2.51848 
     axis 0 0 0  XYZ
  end
  begin
     id 2 
     name lfemur
     direction 0.34202 -0.939693 0  
     length 6.57749  
     axis 0 0 20  XYZ
    dof rx ry rz
    limits (-160.0 20.0)
           (-70.0 70.0)
           (-60.0 70.0)
  end
  begin
     id 3 
     name ltibia
     direction 0.34202 -0.939693 0   
     length 7.94618   
     axis 0 0 20   XYZ
    dof rx
    limits (-10.0 170.0)
  end
  begin
     id 4 
     name lfoot
     direction 0.0811271 -0.222895 0.971461   
     length 2.31339   
     axis -90 7.62852e-016 20   XYZ
    dof rx rz
    limits (-45.0 90.0)
           (-70.0 20.0)
  end
  begin
     id 5 
     name ltoes
     direction 1.53568e-011 -4.21885e-011 1   
     length 1.15935   
     axis -90 7.62852e-016 20   XYZ
    dof rx
    limits (-90.0 20.0)
  end
  begin
     id 6 
     name rhipjoint
     direction -0.640058 -0.688614 0.340788   
     length 2.48149  
     axis 0 0 0  XYZ 
  end
  begin
     id 7 
     name rfemur
     direction -0.34202 -0.939693 0   
     length 6.57875   
     axis 0 0 -20   XYZ
    dof rx ry rz
    limits (-160.0 20.0)
           (-70.0 70.0)
           (-70.0 60.0)
  end
  begin
     id 8 
     name rtibia
     direction -0.34202 -0.939693 0   
     length 7.977   
     axis 0 0 -20   XYZ
    dof rx
    limits (-10.0 170.0)
 end
 begin
     id 9 
     name rfoot
     direction -0.0979793 -0.269196 0.958089   
     length 2.19857  
     axis -90 -7.62852e-016 -20   XYZ
    dof rx rz
    limits (-45.0 90.0)
           (-20.0 70.0)
  end
  begin
     id 10 
     name rtoes
     direction -1.53556e-011 -4.21868e-011 1   
     length 1.09838   
     axis -90 -7.62852e-016 -20   XYZ
    dof rx
    limits (-90.0 20.0)
  end
  begin
     id 11 
     name lowerback
     direction 0.0149039 0.998517 -0.0523597   
     length 2.10809   
     axis 0 0 0   XYZ
    dof rx ry rz
    limits (-20.0 45.0)
           (-30.0 30.0)
           (-30.0 30.0)
  end
  begin
     id 12 
     name upperback
     direction -0.00882659 0.999418 -0.0329624   
     length 2.1102   
     axis 0 0 0   XYZ
    dof rx ry rz
    limits (-20.0 45.0)
           (-30.0 30.0)
           (-30.0 30.0)
  end
  begin
     id 13 
     name thorax
     direction -0.0165585 0.999826 -0.0085833   
     length 2.11039   
     axis 0 0 0   XYZ
    dof rx ry rz
    limits (-20.0 45.0)
           (-30.0 30.0)
           (-30.0 30.0)
  end
  begin
     id 14 
     name lowerneck
     direction -0.0130877 0.999911 0.00260353   
     length 1.73253   
     axis 0 0 0   XYZ
    dof rx ry rz
    limits (-20.0 45.0)
           (-30.0 30.0)
           (-30.0 30.0)
  end
  begin
     id 15 
     name upperneck
     direction -0.0348454 0.928205 -0.370435   
     length 1.66692   
     axis 0 0 0   XYZ
    dof rx ry rz
    limits (-20.0 45.0)
           (-30.0 30.0)
           (-30.0 30.0)
  end
  begin
     id 16
     name head
     direction -0.00807754 0.992494 -0.122026  
     length 1.72765  
     axis 0 0 0   XYZ
    dof rx ry rz
    limits (-20.0 45.0)
           (-30.0 30.0)
           (-30.0 30.0)
  end
  begin
     id 17 
     name lclavicle
     direction 0.987582 0.144023 0.0627671  
     length 3.49235  
     axis 0 0 0   XYZ
    dof ry rz
    limits (-20.0 10.0)
           (0.0 20.0)
  end
  begin
     id 18 
     name lhumerus
     direction 1 -4.48958e-011 -1.45183e-018   
     length 5.41917   
     axis 180 -30 -90   XYZ
    dof rx ry rz
    limits (-60.0 90.0)
           (-90.0 90.0)
           (-90.0 90.0)
  end
  begin
     id 19
     name lradius
     direction 1 -4.48999e-011 5.75106e-027   
     length 2.44373   
     axis 180 -30 -90   XYZ
    dof rx
    limits (-10.0 170.0)
  end
  begin
     id 20
     name lwrist
     direction 1 -4.48987e-011 1.53461e-026   
     length 1.22186   
     axis -1.09697e-014 90 90   XYZ
    dof ry
    limits (-180.0 0.0)
 end
  begin
     id 21 
     name lhand
     direction 1 -4.48881e-011 3.06923e-026   
     length 0.727502   
     axis -1.95843e-014 90 90   XYZ
    dof rx rz
    limits (-90.0 90.0)
           (-45.0 45.0)
  end
  begin
     id 22 
     name lfingers
     direction 1 -4.48907e-011 6.13845e-026   
     length 0.586531   
     axis -3.91686e-014 90 90   XYZ
    dof rx
    limits (0.0 90.0)
  end
  begin
     id 23
     name lthumb
     direction 0.707107 -6.3487e-011 0.707107   
     length 0.842145   
     axis -90 45 2.85299e-015   XYZ
    dof rx rz
    limits (-45.0 45.0)
           (-45.0 45.0)
  end
  begin
     id 24 
     name rclavicle
     direction -0.980998 0.169556 0.0943023   
     length 3.29272  
     axis 0 0 0   XYZ 
    dof ry rz
    limits (-10.0 20.0)
           (-20.0 0.0)
  end
  begin
     id 25 
     name rhumerus
     direction -1 -1.83355e-005 2.45537e-005  
     length 5.58976   
     axis 180 30 90   XYZ
    dof rx ry rz
    limits (-90.0 60.0)
           (-90.0 90.0)
           (-90.0 90.0)
  end
  begin
     id 26 
     name rradius
     direction -1 -4.48967e-011 5.97228e-027   
     length 2.4806   
     axis 180 30 90   XYZ
    dof rx
    limits (-10.0 170.0)
  end
  begin
     id 27 
     name rwrist
     direction -1 -4.48963e-011 1.53461e-026   
     length 1.2403   
     axis -1.09697e-014 -90 -90   XYZ
    dof ry
    limits (-180.0 0.0)
  end
  begin
     id 28
     name rhand
     direction -1 -4.48881e-011 3.06923e-026   
     length 0.816009   
     axis -1.95843e-014 -90 -90   XYZ
    dof rx rz
    limits (-90.0 90.0)
           (-45.0 45.0)
  end
  begin
     id 29
     name rfingers
     direction -1 -4.49018e-011 6.13845e-026   
     length 0.657887   
     axis -3.91686e-014 -90 -90   XYZ
    dof rx
    limits (0.0 90.0)
  end
  begin
     id 30
     name rthumb
     direction -0.707107 -6.34872e-011 0.707107   
     length 0.944599   
     axis -90 -45 -2.85299e-015   XYZ
    dof rx rz
    limits (-45.0 45.0)
           (-45.0 45.0)
  end
:hierarchy
  begin
    root lhipjoint rhipjoint lowerback
    lhipjoint lfemur
    lfemur ltibia
    ltibia lfoot
    lfoot ltoes
    rhipjoint rfemur
    rfemur rtibia
    rtibia rfoot
    rfoot rtoes
    lowerback upperback
    upperback thorax
    thorax lowerneck lclavicle rclavicle
    lowerneck upperneck
    upperneck head
    lclavicle lhumerus
    lhumerus lradius
    lradius lwrist
    lwrist lhand lthumb
    lhand lfingers
    rclavicle rhumerus
    rhumerus rradius
    rradius rwrist
    rwrist rhand rthumb
    rhand rfingers
  end

#!OML:ASF F:\VICON\USERDATA\INSTALL\rory3\rory3.ASF
:FULLY-SPECIFIED
:DEGREES
35
root 1.62277 16.6109 16.6904 23.9105 5.13963 2.46728
lowerback -16.6012 -0.952829 -2.33467
upperback -7.80208 -0.845992 -1.53211
thorax 1.00849 -0.383895 -0.432411
lowerneck -15.6824 -2.4998 -4.67634
upperneck 35.3068 -2.99392 2.17965
head 15.0268 -1.59415 1.21968
rclavicle -7.69669e-015 -3.97569e-016
rhumerus -66.4442 20.756 -107.946
rradius 54.0409
rwrist -75.6833
rhand -18.438 -6.29769
rfingers 7.12502
rthumb 7.84762 -36.132
lclavicle -7.69669e-015 -3.97569e-016
lhumerus -53.3678 2.01573 73.7276
lradius 46.3876
lwrist 18.8583
lhand -4.55072 22.3306
lfingers 7.12502
lthumb 21.225 51.1885
rfemur -43.0604 2.20536 30.5665
rtibia 42.3914
rfoot -50.9266 -32.895
rtoes 45.9318
lfemur -22.9481 17.0303 -28.9788
ltibia 52.7214
lfoot -16.535 43.1412
ltoes 49.4689
36
root 1.62307 16.6111 16.6856 23.9336 4.99646 2.4443
lowerback -16.7235 -0.932163 -2.28899
upperback -7.68666 -0.818868 -1.53732
thorax 1.19419 -0.373636 -0.461646
lowerneck -15.9174 -2.46075 -4.61133
upperneck 35.2877 -2.93522 2.15332
head 15.0676 -1.56247 1.20528
rclavicle 9.62863e-015 2.10712e-014
rhumerus -66.6273 20.8281 -107.899
rradius 54.6745
rwrist -77.1072
rhand -17.8886 -7.14574
rfingers 7.12502
rthumb 8.37788 -36.9596
lclavicle 9.62863e-015 2.10712e-014
lhumerus -53.3634 1.56056 74.2529
lradius 45.9983
lwrist 20.1578
lhand -5.16807 22.7567
lfingers 7.12502
lthumb 20.6319 51.6801
rfemur -43.1297 1.97522 30.6652
rtibia 42.425
rfoot -50.4826 -32.9126
rtoes 45.649
lfemur -22.9658 17.0316 -28.9881
ltibia 52.7157
lfoot -14.2993 43.9984
ltoes 47.9419
37
root 1.62149 16.6124 16.6772 24.0079 4.70255 2.45225
lowerback -17.0503 -0.843018 -2.32831
upperback -7.42523 -0.6757 -1.61069
thorax 1.64059 -0.306953 -0.497631
lowerneck -16.2812 -2.45741 -4.51163
upperneck 35.1656 -2.95188 2.17682
head 15.0928 -1.54926 1.19069
rclavicle -6.64686e-015 1.39149e-014
rhumerus -66.468 20.8518 -107.722
rradius 55.3802
rwrist -78.2948
rhand -17.498 -8.23158
rfingers 7.12502
rthumb 8.75481 -38.03
lclavicle -6.64686e-015 1.39149e-014
lhumerus -53.047 0.892428 74.8253
lradius 45.2479
lwrist 21.4063
lhand -5.82777 22.7914
lfingers 7.12502
lthumb 19.9979 51.7823
rfemur -43.2787 2.11637 30.598
rtibia 42.4992
rfoot -50.1519 -33.1425
rtoes 45.2396
lfemur -23.092 17.1236 -29.1115
ltibia 52.7281
lfoot -11.7778 45.3057
ltoes 45.7406
38
root 1.6175 16.612 16.6619 24.0527 4.31596 2.77287
lowerback -16.3936 -0.918964 -2.83881
upperback -7.8915 -0.739438 -1.60341
thorax 0.806766 -0.318155 -0.201547
lowerneck -15.839 -2.36324 -4.56381
upperneck 35.3394 -2.79249 2.10376
head 15.065 -1.50414 1.20201
rclavicle 3.66509e-015 1.90833e-014
rhumerus -67.6155 20.8739 -107.968
rradius 56.0348
rwrist -79.1878
rhand -16.8866 -9.22132
rfingers 7.12502
rthumb 9.34472 -38.9942
lclavicle 3.66509e-015 1.90833e-014
lhumerus -54.132 0.227626 75.4571
lradius 44.6427
lwrist 22.5682
lhand -6.28361 23.0229
lfingers 7.12502
lthumb 19.5597 52.059
rfemur -43.4226 2.527 30.066
rtibia 42.598
rfoot -50.2832 -33.1529
rtoes 45.4597
lfemur -23.1649 17.1724 -29.569
ltibia 52.736
lfoot -10.8496 45.8123
ltoes 44.7169
39
root 1.61194 16.607 16.6411 24.0148 4.02546 2.98592
lowerback -16.3489 -0.952489 -3.17166
upperback -7.8086 -0.73485 -1.65269
thorax 0.872842 -0.310001 -0.0649243
lowerneck -15.7078 -2.33422 -4.5584
upperneck 35.1285 -2.77187 2.14842
head 14.9338 -1.48862 1.22237
rclavicle 5.92006e-015 2.54444e-014
rhumerus -67.8167 21.0534 -108.028
rradius 56.4759
rwrist -80.0646
rhand -16.1119 -9.67817
rfingers 7.12502
rthumb 10.0922 -39.4162
lclavicle 5.92006e-015 2.54444e-014
lhumerus -54.4656 -0.505023 76.1741
lradius 44.4379
lwrist 23.7558
lhand -6.76407 23.7701
lfingers 7.12502
lthumb 19.0977 52.8525
rfemur -43.5098 2.94513 29.6868
rtibia 42.693
rfoot -50.5695 -33.1525
rtoes 45.6839
lfemur -23.1269 17.1812 -29.8391
ltibia 52.7604
lfoot -14.1752 44.9088
ltoes 45.9566
40
root 1.60709 16.6061 16.626 24.0388 3.86703 2.90546
lowerback -16.337 -0.941397 -3.15089
upperback -7.82039 -0.725433 -1.63415
thorax 0.853976 -0.305497 -0.055368
lowerneck -15.5871 -2.30033 -4.59186
upperneck 35.0701 -2.75904 2.26334
head 14.8801 -1.47262 1.2787
rclavicle -1.62134e-015 1.23246e-014
rhumerus -68.1247 21.2023 -108.171
rradius 56.9091
rwrist -80.7514
rhand -15.4589 -9.98182
rfingers 7.12502
rthumb 10.7221 -39.6882
lclavicle -1.62134e-015 1.23246e-014
lhumerus -55.0484 -1.29686 76.9166
lradius 44.6844
lwrist 24.8763
lhand -7.43137 24.1331
lfingers 7.12502
lthumb 18.4559 53.2776
rfemur -43.6536 3.31907 29.6563
rtibia 42.7878
rfoot -50.7386 -33.2089
rtoes 45.7486
lfemur -23.238 17.2571 -29.79
ltibia 52.8035
lfoot -13.5732 44.9973
ltoes 45.8464
